<svg width="351" height="355" viewBox="0 0 351 355" fill="none" xmlns="http://www.w3.org/2000/svg">
<ellipse cx="95.5787" cy="134.678" rx="22" ry="19" transform="rotate(11.0851 95.5787 134.678)" fill="#FFC892"/>
<ellipse cx="261.426" cy="167.171" rx="22" ry="19" transform="rotate(11.0851 261.426 167.171)" fill="#FFC892"/>
<path d="M198.412 51.9048C228.797 57.858 277.102 78.708 263.654 147.988C263.368 159.283 261.83 170.254 258.723 179.379C251.045 201.923 217.705 213.631 201.995 216.668C196.867 217.701 182.49 218.96 166.004 215.73C149.517 212.5 136.678 205.909 132.319 203.017C118.917 194.277 92.4599 170.853 93.857 147.078C94.418 137.532 97.0857 126.877 101.023 116.381C100.918 116.36 100.811 116.342 100.704 116.321C114.317 46.8415 167.009 45.7522 197.431 51.7125L198.412 51.9048Z" fill="#FFDCBC"/>
<g opacity="0.7" filter="url(#filter0_f_4_203)">
<g clip-path="url(#clip0_4_203)">
<ellipse cx="117.43" cy="155.773" rx="12.5" ry="10.5" transform="rotate(11.0851 117.43 155.773)" fill="#FFBAA5"/>
<ellipse cx="235.192" cy="178.845" rx="12.5" ry="10.5" transform="rotate(11.0851 235.192 178.845)" fill="#FFBAA5"/>
</g>
</g>
<g clip-path="url(#clip1_4_203)">
<path d="M197.46 52.0533C224.492 57.1039 238.254 59.6752 261.365 80.27C296.367 111.462 290.349 233.703 273.692 265.688C260.366 291.276 231.882 293.737 219.306 291.769C219.388 291.631 219.468 291.492 219.55 291.354L219.328 291.645C211.183 283.511 189.775 265.777 159.107 260.047C128.545 254.337 101.28 262.881 90.6676 267.537C90.6792 267.605 90.6902 267.673 90.7019 267.741C78.2638 265.035 52.5902 252.455 49.402 223.782C45.4169 187.94 83.7745 71.7417 127.678 55.2922C156.666 44.4314 170.428 47.0026 197.46 52.0533ZM240.198 99.2046C238.943 105.922 235.537 119.798 231.95 121.57C228.364 123.342 200.024 122.726 185.279 119.971C170.534 117.217 143.069 107.405 140.364 104.458C137.659 101.512 139.493 87.3407 140.748 80.6236C128.805 101.666 111.016 139.345 99.7054 179.083C101.632 178.358 103.766 177.95 106.125 177.898C114.671 189.05 125.994 198.13 133.369 202.847C137.754 205.701 150.65 212.18 167.164 215.265C183.677 218.351 198.043 216.966 203.162 215.887C209.713 214.562 219.324 211.693 228.843 207.156L243.059 204.31C246.647 163.671 243.695 122.843 240.198 99.2046Z" fill="#332E2E"/>
</g>
<g clip-path="url(#clip2_4_203)">
<path d="M229.876 142.597C238.834 147.562 242.138 158.635 237.33 167.309L237.317 167.333L237.306 167.357C236.045 169.952 233.689 172.727 229.979 174.367C226.279 176.003 221.133 176.553 214.211 174.531C211.009 173.595 207.079 171.98 203.863 170.268C202.255 169.411 200.852 168.545 199.818 167.744C199.301 167.344 198.895 166.974 198.605 166.646C198.307 166.307 198.18 166.067 198.141 165.93C198.099 165.782 198.075 165.487 198.137 164.998C198.197 164.527 198.327 163.951 198.521 163.286C198.91 161.957 199.533 160.357 200.274 158.67C201.754 155.3 203.661 151.68 204.964 149.38L204.969 149.372C209.776 140.698 220.918 137.632 229.876 142.597Z" fill="white" stroke="#3A5C3E" stroke-width="2"/>
<path d="M139.169 124.825C129 126.043 121.762 135.051 122.941 144.897L122.944 144.924L122.945 144.951C123.133 147.83 124.268 151.289 127.085 154.208C129.894 157.119 134.452 159.571 141.625 160.309C144.944 160.651 149.192 160.639 152.817 160.267C154.63 160.08 156.255 159.808 157.515 159.456C158.145 159.28 158.66 159.091 159.053 158.896C159.457 158.695 159.664 158.521 159.753 158.409C159.848 158.288 159.981 158.023 160.108 157.547C160.23 157.088 160.327 156.506 160.398 155.817C160.54 154.439 160.567 152.722 160.517 150.88C160.418 147.201 160.018 143.13 159.679 140.508L159.678 140.498C158.499 130.652 149.339 123.608 139.169 124.825Z" fill="white" stroke="#3A5C3E" stroke-width="2"/>
<path d="M228.395 140.768C237.263 144.395 242.343 153.918 239.926 163.212C238.893 168.3 234.79 174.713 224.721 176.342C215.651 174.417 209.856 165.129 211.75 155.462C213.418 146.95 220.497 140.958 228.395 140.768Z" fill="#3A5C3E"/>
<path d="M150.95 126.12C156.152 128.981 159.923 134.14 160.67 140.379C161.355 145.668 162.286 156.803 160.539 159.027C159.372 160.511 154.316 161.338 149.065 161.518C140.049 159.55 134.299 150.291 136.187 140.657C137.721 132.827 143.833 127.131 150.95 126.12Z" fill="#3A5C3E"/>
<line x1="125.765" y1="123.173" x2="129.436" y2="127.918" stroke="#3A5C3E" stroke-width="2" stroke-linecap="round"/>
<line x1="120.236" y1="129.617" x2="125.625" y2="132.255" stroke="#3A5C3E" stroke-width="2" stroke-linecap="round"/>
<line x1="1" y1="-1" x2="7" y2="-1" transform="matrix(-0.865144 0.501523 0.501523 0.865144 244.106 146.454)" stroke="#3A5C3E" stroke-width="2" stroke-linecap="round"/>
<line x1="1" y1="-1" x2="7" y2="-1" transform="matrix(-0.997667 0.0682744 0.0682744 0.997667 246.493 155.074)" stroke="#3A5C3E" stroke-width="2" stroke-linecap="round"/>
</g>
<g clip-path="url(#clip3_4_203)">
<path d="M149.46 171.729C151.237 174.794 156.165 181.194 161.661 182.271C167.156 183.348 172.115 180.923 173.908 179.575C175.059 181.499 178.736 185.616 184.232 186.693C189.727 187.77 196.706 183.702 199.509 181.534" stroke="#8C501D" stroke-width="3" stroke-linecap="round" stroke-linejoin="round"/>
</g>
<ellipse cx="178.36" cy="164.653" rx="9" ry="5.5" transform="rotate(11.0851 178.36 164.653)" fill="#FF7E36"/>
<defs>
<filter id="filter0_f_4_203" x="85.4075" y="130.851" width="181.807" height="72.9148" filterUnits="userSpaceOnUse" color-interpolation-filters="sRGB">
<feFlood flood-opacity="0" result="BackgroundImageFix"/>
<feBlend mode="normal" in="SourceGraphic" in2="BackgroundImageFix" result="shape"/>
<feGaussianBlur stdDeviation="2.5" result="effect1_foregroundBlur_4_203"/>
</filter>
<clipPath id="clip0_4_203">
<rect width="169" height="31" fill="white" transform="translate(96.3678 135.851) rotate(11.0851)"/>
</clipPath>
<clipPath id="clip1_4_203">
<rect width="295.162" height="299.992" fill="white" transform="translate(57.6764 2.53836) rotate(10.583)"/>
</clipPath>
<clipPath id="clip2_4_203">
<rect width="134" height="59" fill="white" transform="translate(121.358 107.12) rotate(11.0851)"/>
</clipPath>
<clipPath id="clip3_4_203">
<rect width="65" height="26" fill="white" transform="translate(142.975 168.42) rotate(11.0851)"/>
</clipPath>
</defs>
</svg>
