<svg width="36" height="37" viewBox="0 0 36 37" fill="none" xmlns="http://www.w3.org/2000/svg">
<path fill-rule="evenodd" clip-rule="evenodd" d="M17.7021 36.2285C27.4785 36.2285 35.4038 28.1185 35.4038 18.1143C35.4038 8.11005 27.4785 0 17.7021 0C7.92529 0 0 8.11005 0 18.1143C0 28.1185 7.92529 36.2285 17.7021 36.2285ZM17.7017 34.1143C26.5381 34.1143 33.7017 26.9508 33.7017 18.1143C33.7017 9.27774 26.5381 2.11429 17.7017 2.11429C8.86523 2.11429 1.70166 9.27774 1.70166 18.1143C1.70166 26.9508 8.86523 34.1143 17.7017 34.1143Z" fill="#DDDBCC"/>
<path fill-rule="evenodd" clip-rule="evenodd" d="M16.7495 30.2251H19.6059L25.4536 19.8038C25.8252 18.3702 26.3457 14.8272 25.4536 12.1239C24.561 9.42053 22.7724 7.82214 20.9922 7.13192C18.8418 6.67849 17.4863 6.57226 15.5996 7.13192C11.1997 8.43676 9.92918 12.2051 9.75926 12.7895C9.41307 14.3636 9.07664 18.0997 10.5 20.4516C11.9228 22.8035 15.2593 27.9472 16.7495 30.2251ZM17.7016 18.488C19.2475 18.488 20.5005 17.2351 20.5005 15.6895C20.5005 14.1439 19.2475 12.8909 17.7016 12.8909C16.1562 12.8909 14.9033 14.1439 14.9033 15.6895C14.9033 17.2351 16.1562 18.488 17.7016 18.488Z" fill="#DDDBCC"/>
</svg>
