<svg width="61" height="58" viewBox="0 0 61 58" fill="none" xmlns="http://www.w3.org/2000/svg">
<path d="M26.2904 2.75C27.4967 -0.916643 32.6835 -0.916655 33.8898 2.74999L38.2782 16.0895C38.8181 17.7305 40.3504 18.8395 42.0779 18.8395H56.1725C60.0595 18.8395 61.6625 23.8233 58.5046 26.0894L47.1876 34.2101C45.7682 35.2287 45.174 37.0505 45.7199 38.71L50.0628 51.9108C51.2723 55.5874 47.0756 58.6672 43.9311 56.4107L32.4221 48.1522C31.0283 47.1521 29.1519 47.1521 27.7581 48.1522L16.2491 56.4108C13.1046 58.6672 8.90792 55.5874 10.1174 51.9109L14.4602 38.71C15.0062 37.0505 14.412 35.2287 12.9926 34.2101L1.67562 26.0894C-1.48237 23.8233 0.120733 18.8395 4.00765 18.8395H18.1023C19.8298 18.8395 21.3621 17.7305 21.902 16.0895L26.2904 2.75Z" fill="#B8B39F"/>
</svg>
