<svg width="60" height="65" viewBox="0 0 60 65" fill="none" xmlns="http://www.w3.org/2000/svg">
<path d="M30.7422 3.3877V5.89844C31.5925 7.96209 33.8152 12.0196 35.9033 11.7393C38.5134 11.3888 40.9453 13.9003 41.9541 14.8936L54.4707 27.2168C55.8747 28.677 58.7776 33.0462 59.1572 38.8398C59.5367 44.6335 56.784 51.2995 55.3604 53.9082H51.6348C50.6542 47.6408 46.3711 35.6629 36.9746 36.0859L8.22559 64.3926L0 56.2939L24.9082 31.7686C23.7344 29.7674 22.5809 26.6087 23.2236 23.127C20.294 20.6699 17.8009 19.5739 16.9209 19.333H14.667L11.167 15.8867L27.3018 0L30.7422 3.3877Z" fill="#B8B39F"/>
</svg>
