<svg width="143" height="84" viewBox="0 0 143 84" fill="none" xmlns="http://www.w3.org/2000/svg">
<g clip-path="url(#clip0_4_212)">
<path d="M119.861 35.4768C128.819 40.4419 132.124 51.5151 127.316 60.1887L127.303 60.2126L127.292 60.2366C126.031 62.832 123.675 65.607 119.965 67.2471C116.265 68.8829 111.119 69.4334 104.197 67.4106C100.995 66.4749 97.0651 64.8602 93.8489 63.1478C92.2402 62.2913 90.8377 61.4251 89.8034 60.6241C89.2864 60.2237 88.881 59.8541 88.5912 59.5257C88.2922 59.1868 88.166 58.9475 88.1268 58.8105C88.0842 58.662 88.0609 58.3666 88.1231 57.8784C88.1831 57.4072 88.3125 56.8314 88.5071 56.1663C88.896 54.8369 89.5191 53.2366 90.2599 51.5495C91.7397 48.1796 93.6463 44.5605 94.9499 42.2602L94.9546 42.2516C99.7621 33.5781 110.904 30.5117 119.861 35.4768Z" fill="white" stroke="#3A5C3E" stroke-width="2"/>
<path d="M29.155 17.7053C18.9857 18.923 11.7473 27.9307 12.9263 37.7772L12.9296 37.8043L12.9308 37.8308C13.1187 40.7099 14.2538 44.169 17.0705 47.0878C19.8798 49.999 24.4376 52.4506 31.611 53.1894C34.9293 53.5312 39.1779 53.5188 42.8025 53.1466C44.6154 52.9605 46.2411 52.6876 47.5011 52.3362C48.1311 52.1604 48.6459 51.9712 49.0383 51.7764C49.443 51.5754 49.6502 51.4013 49.7382 51.2893C49.8337 51.1679 49.9667 50.9031 50.0934 50.4275C50.2156 49.9685 50.3131 49.3864 50.3838 48.6971C50.5253 47.3193 50.5522 45.6021 50.5028 43.7602C50.4041 40.081 50.0042 36.01 49.665 33.3878L49.6639 33.3781C48.4848 23.5317 39.3242 16.4877 29.155 17.7053Z" fill="white" stroke="#3A5C3E" stroke-width="2"/>
<path d="M118.381 33.6484C127.249 37.2748 132.329 46.7977 129.912 56.0918C128.878 61.1796 124.776 67.5933 114.706 69.2218C105.637 67.2968 99.8418 58.0088 101.736 48.3423C103.403 39.8298 110.483 33.8379 118.381 33.6484Z" fill="#3A5C3E"/>
<path d="M40.9361 19.0003C46.1379 21.8609 49.909 27.0198 50.6562 33.2592C51.3403 38.5485 52.2721 49.6827 50.5244 51.907C49.3581 53.3906 44.3017 54.2183 39.0512 54.3979C30.0343 52.4299 24.2848 43.1713 26.1723 33.5374C27.7064 25.7074 33.819 20.011 40.9361 19.0003Z" fill="#3A5C3E"/>
<line x1="15.7506" y1="16.0527" x2="19.4222" y2="20.7982" stroke="#3A5C3E" stroke-width="2" stroke-linecap="round"/>
<line x1="10.2221" y1="22.497" x2="15.611" y2="25.1352" stroke="#3A5C3E" stroke-width="2" stroke-linecap="round"/>
<line x1="1" y1="-1" x2="7" y2="-1" transform="matrix(-0.865144 0.501523 0.501523 0.865144 134.092 39.3343)" stroke="#3A5C3E" stroke-width="2" stroke-linecap="round"/>
<line x1="1" y1="-1" x2="7" y2="-1" transform="matrix(-0.997667 0.0682744 0.0682744 0.997667 136.479 47.9541)" stroke="#3A5C3E" stroke-width="2" stroke-linecap="round"/>
</g>
<defs>
<clipPath id="clip0_4_212">
<rect width="134" height="59" fill="white" transform="translate(11.3438) rotate(11.0851)"/>
</clipPath>
</defs>
</svg>
